<svg width="181" height="58" viewBox="0 0 181 58" fill="none" xmlns="http://www.w3.org/2000/svg">
<path fill-rule="evenodd" clip-rule="evenodd" d="M28.9434 45.9956C28.1291 46.0183 27.3373 45.9503 26.523 45.837C24.3287 45.5197 22.2702 44.8172 20.3701 43.6615C16.1625 41.1235 13.4706 37.4297 12.3622 32.5802C12.1134 31.4924 12.0003 30.382 12.0003 29.2716C11.9776 24.8301 13.4254 20.9323 16.3661 17.6238C18.9223 14.7685 22.0893 13.0236 25.8217 12.2984C26.8623 12.0945 27.9029 11.9812 28.9434 12.0265C28.9434 13.7261 28.9434 15.403 28.9434 17.1026C28.8982 17.1252 28.853 17.1479 28.8077 17.1932C28.1969 17.6238 27.5862 18.077 26.998 18.5529C25.6634 19.6406 24.3966 20.7964 23.3334 22.1787C21.9083 24.0142 20.9582 26.0311 20.8225 28.4105C20.7546 29.5436 20.8903 30.654 21.2523 31.7191C22.1345 34.3704 24.8716 37.1124 28.7172 37.1804C28.9434 37.1804 28.9887 37.2257 28.9887 37.475C28.9661 38.6307 28.9661 40.9422 28.9661 40.9422C28.9661 40.9422 28.9661 41.0781 28.9661 41.1461C28.9434 42.7551 28.9434 44.364 28.9434 45.9956Z" fill="#0099FF"/>
<path fill-rule="evenodd" clip-rule="evenodd" d="M28.9429 17.0796C28.9429 17.0796 28.9429 13.7031 28.9429 12.0035C29.8704 11.9808 30.7752 12.0715 31.6801 12.2074C33.3766 12.4794 35.0054 12.9779 36.5436 13.771C39.7332 15.4253 42.2441 17.7821 43.9407 21C44.9134 22.8582 45.5468 24.8297 45.7956 26.8919C46.0897 29.3166 45.8635 31.7187 45.1396 34.0528C44.3026 36.7042 42.9001 39.0383 40.9321 41.0098C38.5342 43.3892 35.684 44.9302 32.3813 45.6327C31.2503 45.8593 30.0966 45.9953 28.9429 45.9726C28.9429 44.341 28.9429 42.732 28.9429 41.1004C28.9429 41.0325 28.9429 40.9192 28.9429 40.9192C28.9429 40.9192 29.0108 40.8738 29.0334 40.8512C30.7978 39.6048 32.4718 38.2451 33.9196 36.6135C34.8696 35.5485 35.684 34.4154 36.2495 33.101C37.0413 31.2428 37.358 29.3393 36.9508 27.3224C36.2269 23.6513 32.9468 20.9093 29.1691 20.8187C28.9203 20.8187 28.9429 20.6147 28.9429 20.6147V17.0796Z" fill="#0561E2"/>
<path d="M67.7622 34.2827C67.7622 35.2188 67.6087 36.1104 67.3235 36.9797C67.0384 37.849 66.5777 38.6068 66.0074 39.2755C65.4151 39.9441 64.6913 40.4568 63.8138 40.858C62.9364 41.2369 61.9054 41.4375 60.7648 41.4375C58.9222 41.4375 57.4087 40.9917 56.2461 40.1225C55.0615 39.2532 54.2938 37.8712 53.9209 35.9767L57.8035 35.0405C57.9351 35.8206 58.2422 36.4447 58.7467 36.9128C59.2293 37.3809 59.8435 37.6038 60.5674 37.6038C61.7519 37.6038 62.5635 37.2026 62.9803 36.3779C63.3971 35.5754 63.6164 34.4387 63.6164 33.0122V17.1645H67.7622V34.2827Z" fill="#444444"/>
<path d="M90.6187 32.1428C90.6187 33.5693 90.3774 34.8621 89.8948 35.9988C89.4122 37.1579 88.7541 38.1163 87.9206 38.9187C87.087 39.7211 86.0999 40.3452 84.9593 40.7687C83.8186 41.2145 82.5683 41.4151 81.2302 41.4151C79.8922 41.4151 78.6419 41.1922 77.5231 40.7687C76.3825 40.3452 75.3954 39.7211 74.5399 38.9187C73.6844 38.1163 73.0264 37.1356 72.5657 35.9988C72.0831 34.8621 71.8638 33.5693 71.8638 32.1428V17.1644H76.0096V32.009C76.0096 32.5886 76.0973 33.1904 76.2728 33.8368C76.4483 34.4609 76.7335 35.0627 77.1502 35.5976C77.5451 36.1325 78.0935 36.5783 78.7735 36.9127C79.4315 37.2693 80.2651 37.4253 81.2522 37.4253C82.2393 37.4253 83.0728 37.247 83.7309 36.9127C84.389 36.5783 84.9374 36.1325 85.3541 35.5976C85.749 35.0627 86.0561 34.4831 86.2316 33.8368C86.407 33.1904 86.4948 32.5886 86.4948 32.009V17.1644H90.6406V32.1428H90.6187Z" fill="#444444"/>
<path d="M106.325 22.2463C105.886 21.5999 105.294 21.1318 104.57 20.8198C103.824 20.5077 103.056 20.374 102.245 20.374C101.762 20.374 101.302 20.4409 100.841 20.5523C100.38 20.6637 99.9854 20.8421 99.6344 21.0872C99.2615 21.3324 98.9763 21.6445 98.757 22.0457C98.5376 22.4469 98.4279 22.8927 98.4279 23.4276C98.4279 24.23 98.6912 24.8541 99.2615 25.2553C99.8099 25.6788 100.49 26.0578 101.302 26.3475C102.113 26.6596 102.991 26.9716 103.956 27.2614C104.921 27.5511 105.798 27.9523 106.632 28.465C107.443 28.9777 108.123 29.6686 108.672 30.4933C109.22 31.3403 109.505 32.4771 109.505 33.859C109.505 35.1295 109.286 36.244 108.825 37.1801C108.365 38.1386 107.751 38.9187 106.961 39.5428C106.171 40.1669 105.272 40.635 104.241 40.947C103.21 41.2591 102.113 41.4151 100.994 41.4151C99.5467 41.4151 98.1428 41.1699 96.8267 40.6795C95.4886 40.1892 94.326 39.3645 93.3608 38.2054L96.4976 35.1295C97.0021 35.9096 97.6602 36.5114 98.4938 36.9572C99.3273 37.403 100.183 37.6036 101.104 37.6036C101.587 37.6036 102.069 37.5367 102.552 37.403C103.034 37.2693 103.473 37.0687 103.868 36.8012C104.263 36.5337 104.57 36.1994 104.811 35.7759C105.052 35.3747 105.184 34.8843 105.184 34.3494C105.184 33.4801 104.899 32.8114 104.351 32.3433C103.802 31.8753 103.122 31.4741 102.311 31.162C101.499 30.85 100.6 30.5379 99.6344 30.2481C98.6692 29.9584 97.7699 29.5572 96.9802 29.0668C96.1686 28.5764 95.4886 27.9078 94.9402 27.0608C94.3918 26.2138 94.1066 25.0993 94.1066 23.6951C94.1066 22.4692 94.3479 21.4216 94.8525 20.53C95.335 19.6384 95.9931 18.9029 96.8047 18.3011C97.5944 17.7216 98.5157 17.2758 99.5467 16.986C100.578 16.6963 101.631 16.5625 102.705 16.5625C103.934 16.5625 105.118 16.7631 106.281 17.1197C107.422 17.4987 108.474 18.1228 109.396 18.992L106.325 22.2463Z" fill="#444444"/>
<path d="M112.971 17.1644H120.802C121.921 17.1644 122.996 17.2758 124.049 17.4987C125.08 17.7216 126.001 18.1005 126.791 18.6132C127.58 19.1481 128.216 19.8391 128.677 20.7084C129.138 21.5999 129.379 22.6921 129.379 24.0072C129.379 25.5006 129.116 26.7042 128.611 27.618C128.107 28.5319 127.427 29.2452 126.571 29.7355C125.716 30.2259 124.729 30.5825 123.588 30.7608C122.447 30.9391 121.285 31.0283 120.056 31.0283H117.095V40.8356H112.949V17.1644H112.971ZM119.618 27.4397C120.21 27.4397 120.824 27.4174 121.46 27.3729C122.096 27.3283 122.689 27.1945 123.215 26.9716C123.742 26.7488 124.18 26.4144 124.531 25.9686C124.86 25.5228 125.036 24.8987 125.036 24.0963C125.036 23.3608 124.882 22.7813 124.575 22.3355C124.268 21.8897 123.873 21.5553 123.391 21.3325C122.908 21.0873 122.36 20.9535 121.767 20.8867C121.175 20.8198 120.605 20.7752 120.056 20.7752H117.095V27.4397H119.618Z" fill="#444444"/>
<path d="M137.341 17.1644H140.917L150.963 40.8356H146.225L144.054 35.4193H133.963L131.857 40.8356H127.207L137.341 17.1644ZM142.606 31.8084L139.008 22.1794L135.367 31.8084H142.606Z" fill="#444444"/>
<path d="M156.009 30.7162L147.256 17.1644H152.455L158.18 26.5927L163.971 17.1644H168.907L160.154 30.7162V40.8579H156.009V30.7162Z" fill="#444444"/>
</svg>
